<svg version="1.2" xmlns="http://www.w3.org/2000/svg" viewBox="0 0 24 24" width="24" height="24">
	<title>app-store-circle-svgrepo-com</title>
	<style>
		.s0 { fill: #000000 } 
		.s1 { fill: #2ca9bc } 
	</style>
	<g id="SVGRepo_bgCarrier">
	</g>
	<g id="SVGRepo_tracerCarrier">
	</g>
	<g id="SVGRepo_iconCarrier">
		<path id="primary" fill-rule="evenodd" class="s0" d="m12 22c-5.5 0-10-4.5-10-10 0-5.5 4.5-10 10-10 5.5 0 10 4.5 10 10 0 5.5-4.5 10-10 10z"/>
		<path id="secondary" class="s1" d="m17 14q0-0.2-0.1-0.4-0.1-0.2-0.2-0.3-0.1-0.1-0.3-0.2-0.2-0.1-0.4-0.1h-0.8l-2.1-4.2 0.7-1.4q0.2-0.3 0-0.7-0.1-0.4-0.5-0.6-0.3-0.1-0.7 0-0.4 0.1-0.6 0.5-0.2-0.4-0.6-0.5-0.4-0.1-0.7 0-0.4 0.2-0.5 0.6-0.2 0.4 0 0.7l0.7 1.4-2.1 4.2h-0.8q-0.2 0-0.4 0.1-0.2 0.1-0.3 0.2-0.1 0.1-0.2 0.3-0.1 0.2-0.1 0.4 0 0.2 0.1 0.3 0 0.2 0.1 0.4 0.2 0.1 0.3 0.2 0.2 0.1 0.3 0.1l-0.2 0.6q-0.1 0.2-0.1 0.4-0.1 0.2 0 0.3 0.1 0.2 0.2 0.4 0.1 0.1 0.3 0.2 0.1 0 0.1 0 0.1 0.1 0.1 0.1 0.1 0 0.1 0 0.1 0 0.1 0 0.2 0 0.3 0 0.2-0.1 0.3-0.2 0.1 0 0.2-0.1 0.1-0.1 0.1-0.3l0.8-1.4h3.9l0.7 1.4q0.1 0.2 0.2 0.3 0.1 0.1 0.2 0.1 0.1 0.1 0.2 0.2 0.2 0 0.3 0 0.1 0 0.1 0 0.1 0 0.1 0 0.1 0 0.1-0.1 0.1 0 0.2 0 0.1-0.1 0.3-0.2 0.1-0.2 0.2-0.4 0-0.2 0-0.4 0-0.2-0.1-0.3l-0.3-0.6q0.1 0 0.3-0.1 0.2-0.1 0.3-0.2 0.1-0.2 0.1-0.4 0.1-0.1 0.1-0.3zm-6-1l1-1.9 1 1.9z"/>
	</g>
</svg>